<?xml version="1.0" ?><svg width="60.031px" height="60.031px" viewBox="0 0 60.031 60.031" id="home" xmlns="http://www.w3.org/2000/svg"><defs><style>
      .cls-1 {
        fill: #594545;
      }

      .cls-1, .cls-2 {
        fill-rule: evenodd;
      }

      .cls-2 {
        fill: #594545;
      }
    </style></defs><path class="cls-1" d="M81.16,124.809l17.421-17.433a2,2,0,0,1,2.83,0l17.421,17.433A4.015,4.015,0,0,1,120,127.642v18.365a4,4,0,0,1-4,4H106V138a4,4,0,0,0-4-4H98a4,4,0,0,0-4,4v12.012H83.99a4,4,0,0,1-4-4V127.642A4.01,4.01,0,0,1,81.16,124.809Z" data-name="home" id="home-2" transform="translate(-70 -89.969)"/><path class="cls-2" d="M128.837,122.807a4,4,0,0,1-5.659,0l-21.767-21.784a2,2,0,0,0-2.83,0L76.814,122.807a4,4,0,0,1-5.659-5.663L97.167,91.112a4,4,0,0,1,5.659,0l26.011,26.032A4.006,4.006,0,0,1,128.837,122.807Z" data-name="home" id="home-3" transform="translate(-70 -89.969)"/></svg>